Coordinates
version=1
nRows=21
nColumns=27
inDegrees=yes

Units are S.I. units (second, meters, Newtons, ...)
If the header above contains a line with 'inDegrees', this indicates whether rotational values are in degrees (yes) or radians (no).

endheader
time	pelvis_rotation	pelvis_tilt	pelvis_list	pelvis_tx	pelvis_ty	pelvis_tz	hip_flexion_r	hip_adduction_r	hip_rotation_r	knee_angle_r	knee_rotation_r	knee_adduction_r	knee_angle_r_beta	ankle_angle_r	subtalar_angle_r	mtp_angle_r	hip_flexion_l	hip_adduction_l	hip_rotation_l	knee_angle_l	knee_rotation_l	knee_adduction_l	knee_angle_l_beta	ankle_angle_l	subtalar_angle_l	mtp_angle_l
      4.65500000	      8.01008149	    -39.71259794	      7.13763415	     -0.04822812	      0.58077537	     -1.16647830	    117.05698585	    -47.76153479	     10.77352603	     88.37303679	      0.00000000	      9.90758043	      1.54240046	     10.04783761	      0.00000000	      0.00000000	    109.73454147	    -33.36791677	     -0.91089449	     82.47484281	      0.00000000	     -9.92864403	      1.43945756	      5.00437679	      0.00000000	      0.00000000
      4.66000000	      8.02215682	    -39.70871745	      7.08952953	     -0.04830134	      0.57956912	     -1.16653362	    117.25710310	    -47.83272885	     10.88504910	     88.56021357	      0.00000000	      9.90791506	      1.54566731	     10.07688311	      0.00000000	      0.00000000	    109.97874129	    -33.36503345	     -0.73133317	     82.68615394	      0.00000000	     -9.92880236	      1.44314563	      5.06438025	      0.00000000	      0.00000000
      4.66500000	      7.93031047	    -39.79272373	      7.11949398	     -0.04851479	      0.57830877	     -1.16656635	    117.67321657	    -47.71493074	     11.15906641	     88.76064777	      0.00000000	      9.90812563	      1.54916555	     10.07587952	      0.00000000	      0.00000000	    110.23281147	    -33.51255604	     -0.68037701	     82.89745404	      0.00000000	     -9.92900588	      1.44683351	      5.11055413	      0.00000000	      0.00000000
      4.67000000	      7.91089940	    -39.82117833	      7.10062249	     -0.04861723	      0.57707877	     -1.16659568	    117.94843941	    -47.72359663	     11.32605687	     88.95335961	      0.00000000	      9.90845839	      1.55252901	     10.09889394	      0.00000000	      0.00000000	    110.48258223	    -33.55866854	     -0.54146211	     83.10887278	      0.00000000	     -9.92914830	      1.45052347	      5.15968739	      0.00000000	      0.00000000
      4.67500000	      7.88821377	    -39.89758197	      7.10437715	     -0.04876955	      0.57576983	     -1.16663891	    118.31662571	    -47.70252416	     11.54297417	     89.16063840	      0.00000000	      9.90880943	      1.55614670	     10.11791957	      0.00000000	      0.00000000	    110.77969078	    -33.62574675	     -0.42211393	     83.33484038	      0.00000000	     -9.92934508	      1.45446735	      5.21940304	      0.00000000	      0.00000000
      4.68000000	      7.84113927	    -39.93687074	      7.07904788	     -0.04890047	      0.57449700	     -1.16663562	    118.61109472	    -47.67661382	     11.71758341	     89.36378366	      0.00000000	      9.90908837	      1.55969226	     10.14535963	      0.00000000	      0.00000000	    111.04660452	    -33.71157502	     -0.28862934	     83.54940970	      0.00000000	     -9.92955720	      1.45821229	      5.25476704	      0.00000000	      0.00000000
      4.68500000	      7.82450308	    -39.93102914	      7.06655656	     -0.04895438	      0.57324973	     -1.16662687	    118.86256737	    -47.69681208	     11.89056020	     89.56694681	      0.00000000	      9.90950636	      1.56323812	     10.17850611	      0.00000000	      0.00000000	    111.25596940	    -33.77243110	     -0.17682361	     83.75406848	      0.00000000	     -9.92975352	      1.46178426	      5.28177279	      0.00000000	      0.00000000
      4.69000000	      7.79334601	    -40.00402344	      7.02830497	     -0.04910304	      0.57189849	     -1.16663105	    119.18732635	    -47.68075509	     12.05870173	     89.77626319	      0.00000000	      9.90978518	      1.56689138	     10.20162493	      0.00000000	      0.00000000	    111.59013083	    -33.83587519	      0.00028643	     83.98693517	      0.00000000	     -9.92997581	      1.46584855	      5.32743490	      0.00000000	      0.00000000
      4.69500000	      7.77523580	    -40.07742796	      7.01080743	     -0.04928839	      0.57053106	     -1.16661434	    119.54065440	    -47.66718754	     12.25396771	     89.99129283	      0.00000000	      9.91016907	      1.57064436	     10.21622375	      0.00000000	      0.00000000	    111.91269052	    -33.88822182	      0.16575869	     84.20785909	      0.00000000	     -9.93019189	      1.46970440	      5.36871448	      0.00000000	      0.00000000
      4.70000000	      7.74790042	    -40.11532600	      6.99643184	     -0.04938511	      0.56915660	     -1.16659242	    119.86073771	    -47.65815960	     12.45083612	     90.21064648	      0.00000000	      9.91052670	      1.57447280	     10.25009855	      0.00000000	      0.00000000	    112.19337418	    -33.96994688	      0.29742032	     84.43553842	      0.00000000	     -9.93043021	      1.47367815	      5.40761258	      0.00000000	      0.00000000
      4.70500000	      7.74439007	    -40.15627005	      6.99410745	     -0.04949756	      0.56772312	     -1.16657241	    120.20541426	    -47.65691929	     12.67531169	     90.43956102	      0.00000000	      9.91098795	      1.57846811	     10.28445162	      0.00000000	      0.00000000	    112.48489152	    -34.02497762	      0.44020190	     84.67231221	      0.00000000	     -9.93068516	      1.47781063	      5.44101745	      0.00000000	      0.00000000
      4.71000000	      7.72919833	    -40.19637967	      6.96677149	     -0.04958318	      0.56631611	     -1.16650308	    120.52021115	    -47.66869002	     12.85100611	     90.66503512	      0.00000000	      9.91131819	      1.58240338	     10.29809311	      0.00000000	      0.00000000	    112.78666754	    -34.09117702	      0.60228503	     84.89333993	      0.00000000	     -9.93092326	      1.48166829	      5.47120761	      0.00000000	      0.00000000
      4.71500000	      7.67077696	    -40.20322890	      6.91850582	     -0.04963210	      0.56484715	     -1.16644209	    120.79037620	    -47.64030091	     13.03105793	     90.90000265	      0.00000000	      9.91173248	      1.58650434	     10.31842434	      0.00000000	      0.00000000	    113.06153257	    -34.20327492	      0.76481074	     85.13700716	      0.00000000	     -9.93125061	      1.48592109	      5.51893656	      0.00000000	      0.00000000
      4.72000000	      7.67566434	    -40.26730716	      6.92480261	     -0.04974337	      0.56336572	     -1.16637405	    121.17746872	    -47.63382924	     13.27619607	     91.13891620	      0.00000000	      9.91215529	      1.59067416	     10.36741387	      0.00000000	      0.00000000	    113.38232147	    -34.25731060	      0.91328615	     85.36575663	      0.00000000	     -9.93154271	      1.48991352	      5.52855137	      0.00000000	      0.00000000
      4.72500000	      7.75020694	    -40.28276103	      6.89899037	     -0.04973294	      0.56183067	     -1.16632675	    121.47572546	    -47.74398489	     13.45816011	     91.38578104	      0.00000000	      9.91273823	      1.59498277	     10.41462785	      0.00000000	      0.00000000	    113.71115640	    -34.24115214	      1.10978310	     85.61658781	      0.00000000	     -9.93191818	      1.49429135	      5.55867113	      0.00000000	      0.00000000
      4.73000000	      7.65141843	    -40.29628945	      6.86043252	     -0.04976509	      0.56034336	     -1.16620302	    121.76870629	    -47.65309485	     13.66847059	     91.63012234	      0.00000000	      9.91295237	      1.59924733	     10.44291138	      0.00000000	      0.00000000	    113.97708879	    -34.40475615	      1.25276738	     85.85040094	      0.00000000	     -9.93219323	      1.49837216	      5.56890951	      0.00000000	      0.00000000
      4.73500000	      7.63853695	    -40.26789372	      6.81934860	     -0.04970372	      0.55879544	     -1.16611733	    122.02932276	    -47.67529538	     13.87067318	     91.88509941	      0.00000000	      9.91345605	      1.60369752	     10.46888598	      0.00000000	      0.00000000	    114.23591684	    -34.47550780	      1.43131769	     86.10293418	      0.00000000	     -9.93253935	      1.50277970	      5.60188142	      0.00000000	      0.00000000
      4.74000000	      7.65049221	    -40.32968850	      6.80745776	     -0.04974022	      0.55724870	     -1.16601860	    122.39248985	    -47.67942376	     14.09726061	     92.13497681	      0.00000000	      9.91380519	      1.60805870	     10.51046424	      0.00000000	      0.00000000	    114.58462493	    -34.52805748	      1.60681614	     86.34009786	      0.00000000	     -9.93283391	      1.50691898	      5.59783123	      0.00000000	      0.00000000
      4.74500000	      7.62924797	    -40.33463658	      6.78642683	     -0.04969109	      0.55566822	     -1.16591190	    122.70349536	    -47.66440899	     14.32955401	     92.39460528	      0.00000000	      9.91420584	      1.61259007	     10.54166571	      0.00000000	      0.00000000	    114.86913948	    -34.62177536	      1.76625040	     86.59096712	      0.00000000	     -9.93318749	      1.51129748	      5.61266792	      0.00000000	      0.00000000
      4.75000000	      7.69440464	    -40.27110818	      6.73446974	     -0.04950674	      0.55411528	     -1.16581994	    122.90035064	    -47.78739435	     14.50370736	     92.65287770	      0.00000000	      9.91465767	      1.61709778	     10.58562665	      0.00000000	      0.00000000	    115.12072462	    -34.59876907	      1.98632296	     86.84015248	      0.00000000	     -9.93351676	      1.51564658	      5.65189861	      0.00000000	      0.00000000
      4.75500000	      7.60886427	    -40.32101043	      6.72076043	     -0.04949522	      0.55254603	     -1.16567221	    123.25267583	    -47.66381838	     14.76386021	     92.90639777	      0.00000000	      9.91494687	      1.62152254	     10.62186346	      0.00000000	      0.00000000	    115.43042249	    -34.77256295	      2.12102648	     87.08184966	      0.00000000	     -9.93391121	      1.51986500	      5.62561510	      0.00000000	      0.00000000
